<svg width="1366" height="62" viewBox="0 0 1366 62" fill="none" xmlns="http://www.w3.org/2000/svg">
<path d="M0 62L79 46C124.533 39.8111 182.133 24.8669 273.2 14.5392C364.267 4.3663 455.333 -4.14337 546.4 2.16152C637.467 8.23433 728.533 29.1217 819.6 35.1945C910.667 41.4994 1001.73 32.9897 1092.8 35.1945C1183.87 37.2446 1274.93 49.6223 1320.47 55.8111L1366 62H1320.47C1274.93 62 1183.87 62 1092.8 62C1001.73 62 910.667 62 819.6 62C728.533 62 637.467 62 546.4 62C455.333 62 364.267 62 273.2 62C182.133 62 91.0667 62 45.5333 62H0Z" fill="#8A0000"/>
</svg>
