<svg width="476" height="390" viewBox="0 0 476 390" fill="none" xmlns="http://www.w3.org/2000/svg">
<path d="M317.121 17.7798C317.121 17.7798 247.196 -2.7924 178.148 38.8086C109.099 80.4095 73.8942 158.01 43.6873 220.259C13.4803 282.508 30.226 343.502 82.5479 369.115C134.87 394.728 170.865 351.415 244.55 345.775C318.235 340.135 337.979 349.304 399.374 306.209C460.768 263.115 472.449 167.863 424.687 100.154C376.925 32.4457 317.121 17.7798 317.121 17.7798Z" fill="#FF4136"/>
<path opacity="0.7" d="M317.121 17.7798C317.121 17.7798 247.196 -2.7924 178.148 38.8086C109.099 80.4095 73.8942 158.01 43.6873 220.259C13.4803 282.508 30.226 343.502 82.5479 369.115C134.87 394.728 170.865 351.415 244.55 345.775C318.235 340.135 337.979 349.304 399.374 306.209C460.768 263.115 472.449 167.863 424.687 100.154C376.925 32.4457 317.121 17.7798 317.121 17.7798Z" fill="white"/>
<path d="M434.702 197.318H52.322V215.028H434.702V197.318Z" fill="#263238"/>
<path d="M439.824 81.6074H46.6479V208.103H439.824V81.6074Z" fill="white"/>
<mask id="mask0_318_17" style="mask-type:luminance" maskUnits="userSpaceOnUse" x="46" y="81" width="394" height="128">
<path d="M439.824 81.6074H46.6479V208.103H439.824V81.6074Z" fill="white"/>
</mask>
<g mask="url(#mask0_318_17)">
<path d="M174.559 81.6074V144.979H164.753C152.377 146.282 145.151 136.495 147.769 121.477C150.387 106.46 107.909 129.971 98.1131 121.477C91.173 115.476 115.658 93.7815 130.557 81.6074H174.559ZM367.634 115.942C374.879 133.062 451.553 85.4118 434.464 112.841C417.376 140.271 399.754 158.903 438.091 150.629L439.824 150.22V81.6074H403.448C386.055 90.6714 363.017 105.08 367.634 115.942Z" fill="#FF4136"/>
<path opacity="0.5" d="M174.559 81.6074V144.979H164.753C152.377 146.282 145.151 136.495 147.769 121.477C150.387 106.46 107.909 129.971 98.1131 121.477C91.173 115.476 115.658 93.7815 130.557 81.6074H174.559ZM367.634 115.942C374.879 133.062 451.553 85.4118 434.464 112.841C417.376 140.271 399.754 158.903 438.091 150.629L439.824 150.22V81.6074H403.448C386.055 90.6714 363.017 105.08 367.634 115.942Z" fill="white"/>
</g>
<path d="M439.824 81.6074H46.6479V208.103H439.824V81.6074Z" stroke="#263238" stroke-linecap="round" stroke-linejoin="round"/>
<path d="M312.151 81.6074H174.311V208.103H312.151V81.6074Z" fill="white"/>
<mask id="mask1_318_17" style="mask-type:luminance" maskUnits="userSpaceOnUse" x="174" y="81" width="139" height="128">
<path d="M312.151 81.6074H174.311V208.103H312.151V81.6074Z" fill="white"/>
</mask>
<g mask="url(#mask1_318_17)">
<path d="M266.16 149.136C251.052 157.201 207.422 192.401 188.229 208.104H312.161V83.168C295.977 89.7496 234.297 115.448 230.898 125.359C226.976 136.772 285.752 138.674 266.16 149.136Z" fill="#FF4136"/>
<path opacity="0.5" d="M266.16 149.136C251.052 157.201 207.422 192.401 188.229 208.104H312.161V83.168C295.977 89.7496 234.297 115.448 230.898 125.359C226.976 136.772 285.752 138.674 266.16 149.136Z" fill="white"/>
</g>
<path d="M312.151 81.6074H174.311V208.103H312.151V81.6074Z" stroke="#263238" stroke-linecap="round" stroke-linejoin="round"/>
<path d="M321.243 129.743C325.327 138.702 336.808 145.569 342.339 147.234C342.339 147.234 357.152 152.408 368.262 143.829C379.372 135.25 381.819 118.606 371.337 102.399C360.856 86.1923 338.465 89.6829 328.868 98.8039C319.272 107.925 317.168 120.784 321.243 129.743ZM352.24 114.896C355.848 118.035 356.048 122.505 352.478 124.664C351.474 125.238 350.334 125.531 349.178 125.511C348.022 125.491 346.892 125.159 345.909 124.55C344.789 123.942 343.938 122.937 343.524 121.732C343.109 120.528 343.162 119.212 343.672 118.045C344.719 115.496 348.66 111.748 352.24 114.896Z" fill="white" stroke="#263238" stroke-miterlimit="10"/>
<path d="M329.392 100.069C328.002 104.511 327.326 105.776 325.032 107.963C322.738 110.151 321.519 113.793 321.795 115.715C322.123 117.994 322.225 120.301 322.1 122.6C322.048 124.178 322.366 125.745 323.027 127.178C323.688 128.611 324.674 129.87 325.908 130.856C327.937 132.334 329.682 134.168 331.058 136.268C333.067 139.035 332.41 139.663 335.418 141.175C338.426 142.688 344.11 145.712 344.11 145.712C344.11 145.712 350.603 148.565 353.516 147.386C356.429 146.207 359.894 141.955 362.16 141.052C364.426 140.148 365.482 142.574 368.481 138.198C371.48 133.823 372.356 130.457 374.193 128.735C376.03 127.014 376.468 120.955 373.974 118.34C371.456 115.916 369.987 112.605 369.881 109.114C369.509 104.786 368.291 102.19 363.693 100.64C359.094 99.0894 355.658 95.1613 353.935 93.6776C352.211 92.1939 347.556 92.5553 344.634 94.0771C341.711 95.5988 339.055 93.126 335.98 94.5051C335.028 94.9426 334.076 95.2184 333.324 95.5323C332.509 96.009 331.721 96.5297 330.963 97.0921C330.239 97.9652 329.704 98.9789 329.392 100.069ZM344.072 115.848C345.976 116.209 347.033 112.719 350.393 112.643C353.754 112.566 351.793 114.44 352.297 114.925C353.08 115.598 353.743 116.399 354.258 117.293C354.832 118.026 355.218 118.888 355.382 119.804C355.327 121.364 355.796 122.898 356.714 124.16C357.79 125.625 355.391 125.73 353.297 126.158C351.202 126.586 351.05 126.414 349.413 127.651C347.775 128.887 345.433 126.757 345.433 126.757C345.433 126.757 344.005 126.243 342.625 123.808C341.244 121.374 342.701 120.955 341.463 118.977C340.226 116.999 342.158 115.429 344.072 115.848Z" fill="white" stroke="#263238" stroke-miterlimit="10"/>
<path d="M344.967 104.12C345.882 104.12 346.623 103.379 346.623 102.465C346.623 101.551 345.882 100.811 344.967 100.811C344.052 100.811 343.31 101.551 343.31 102.465C343.31 103.379 344.052 104.12 344.967 104.12Z" fill="white" stroke="#263238" stroke-miterlimit="10"/>
<path d="M335.018 107.202C335.413 107.202 335.732 106.883 335.732 106.489C335.732 106.095 335.413 105.775 335.018 105.775C334.624 105.775 334.304 106.095 334.304 106.489C334.304 106.883 334.624 107.202 335.018 107.202Z" fill="white" stroke="#263238" stroke-miterlimit="10"/>
<path d="M339.16 99.3844C339.748 99.3844 340.226 98.9074 340.226 98.3191C340.226 97.7308 339.748 97.2539 339.16 97.2539C338.571 97.2539 338.093 97.7308 338.093 98.3191C338.093 98.9074 338.571 99.3844 339.16 99.3844Z" fill="white" stroke="#263238" stroke-miterlimit="10"/>
<path d="M334.066 114.771C334.066 115.148 333.955 115.515 333.745 115.828C333.536 116.141 333.239 116.385 332.891 116.529C332.543 116.673 332.16 116.71 331.791 116.637C331.421 116.564 331.082 116.382 330.816 116.116C330.55 115.85 330.368 115.511 330.295 115.142C330.221 114.773 330.259 114.391 330.403 114.043C330.547 113.696 330.791 113.399 331.104 113.19C331.418 112.981 331.786 112.869 332.162 112.869C332.667 112.869 333.152 113.07 333.509 113.426C333.866 113.783 334.066 114.267 334.066 114.771Z" fill="white" stroke="#263238" stroke-miterlimit="10"/>
<path d="M356.105 108.742C356.105 109 356.029 109.252 355.885 109.466C355.742 109.681 355.538 109.848 355.3 109.946C355.062 110.045 354.799 110.071 354.546 110.02C354.293 109.97 354.061 109.846 353.879 109.664C353.696 109.482 353.572 109.249 353.522 108.997C353.471 108.744 353.497 108.482 353.596 108.244C353.695 108.006 353.862 107.802 354.076 107.659C354.291 107.516 354.543 107.439 354.801 107.439C354.973 107.438 355.143 107.471 355.302 107.536C355.46 107.601 355.605 107.697 355.726 107.818C355.847 107.94 355.943 108.084 356.008 108.242C356.074 108.401 356.106 108.571 356.105 108.742Z" fill="white" stroke="#263238" stroke-miterlimit="10"/>
<path d="M355.753 101.99C356.342 101.99 356.819 101.513 356.819 100.925C356.819 100.336 356.342 99.8594 355.753 99.8594C355.164 99.8594 354.687 100.336 354.687 100.925C354.687 101.513 355.164 101.99 355.753 101.99Z" fill="white" stroke="#263238" stroke-miterlimit="10"/>
<path d="M365.568 109.922C365.568 110.226 365.477 110.524 365.308 110.778C365.139 111.031 364.898 111.229 364.616 111.345C364.334 111.462 364.024 111.492 363.725 111.433C363.426 111.373 363.151 111.227 362.935 111.011C362.719 110.796 362.573 110.521 362.513 110.222C362.454 109.923 362.484 109.614 362.601 109.332C362.718 109.05 362.915 108.81 363.169 108.641C363.422 108.471 363.721 108.381 364.026 108.381C364.434 108.383 364.825 108.546 365.113 108.835C365.402 109.123 365.565 109.514 365.568 109.922Z" fill="white" stroke="#263238" stroke-miterlimit="10"/>
<path d="M367.472 122.942C367.472 123.199 367.395 123.451 367.252 123.666C367.109 123.88 366.905 124.047 366.667 124.145C366.428 124.244 366.166 124.27 365.913 124.22C365.66 124.169 365.428 124.045 365.245 123.863C365.063 123.681 364.939 123.449 364.889 123.196C364.838 122.943 364.864 122.681 364.963 122.443C365.061 122.205 365.229 122.001 365.443 121.858C365.658 121.715 365.91 121.639 366.168 121.639C366.514 121.639 366.845 121.776 367.09 122.02C367.335 122.265 367.472 122.596 367.472 122.942Z" fill="white" stroke="#263238" stroke-miterlimit="10"/>
<path d="M359.428 136.314C359.429 136.596 359.347 136.873 359.192 137.109C359.036 137.345 358.813 137.529 358.553 137.638C358.292 137.748 358.004 137.777 357.727 137.724C357.449 137.67 357.194 137.534 356.993 137.335C356.793 137.136 356.656 136.882 356.6 136.605C356.544 136.328 356.572 136.041 356.679 135.779C356.787 135.518 356.97 135.295 357.205 135.138C357.44 134.98 357.717 134.896 358 134.896C358.377 134.896 358.738 135.045 359.006 135.311C359.274 135.576 359.425 135.937 359.428 136.314Z" fill="white" stroke="#263238" stroke-miterlimit="10"/>
<path d="M342.834 140.575C344.012 140.575 344.967 139.622 344.967 138.445C344.967 137.268 344.012 136.314 342.834 136.314C341.656 136.314 340.702 137.268 340.702 138.445C340.702 139.622 341.656 140.575 342.834 140.575Z" fill="white" stroke="#263238" stroke-miterlimit="10"/>
<path d="M334.894 126.613C335.483 126.613 335.961 126.136 335.961 125.548C335.961 124.959 335.483 124.482 334.894 124.482C334.306 124.482 333.828 124.959 333.828 125.548C333.828 126.136 334.306 126.613 334.894 126.613Z" fill="white" stroke="#263238" stroke-miterlimit="10"/>
<path d="M346.395 130.875C346.395 131.063 346.339 131.247 346.234 131.403C346.13 131.56 345.981 131.682 345.807 131.754C345.633 131.826 345.442 131.844 345.257 131.808C345.072 131.771 344.903 131.68 344.77 131.547C344.636 131.414 344.546 131.245 344.509 131.06C344.472 130.876 344.491 130.685 344.563 130.511C344.635 130.337 344.757 130.189 344.914 130.084C345.07 129.98 345.254 129.924 345.443 129.924C345.695 129.924 345.937 130.024 346.116 130.202C346.294 130.381 346.395 130.623 346.395 130.875Z" fill="white" stroke="#263238" stroke-miterlimit="10"/>
<path d="M327.669 120.603C327.669 120.766 327.62 120.926 327.529 121.063C327.438 121.199 327.309 121.305 327.157 121.367C327.006 121.43 326.84 121.446 326.679 121.414C326.518 121.382 326.371 121.304 326.255 121.188C326.139 121.072 326.06 120.925 326.028 120.764C325.996 120.604 326.013 120.437 326.075 120.286C326.138 120.135 326.244 120.006 326.38 119.915C326.517 119.824 326.677 119.775 326.841 119.775C327.06 119.775 327.271 119.863 327.426 120.018C327.581 120.173 327.669 120.383 327.669 120.603Z" fill="white" stroke="#263238" stroke-miterlimit="10"/>
<path d="M334.304 99.1548C334.304 99.2959 334.262 99.4338 334.184 99.5511C334.105 99.6684 333.994 99.7598 333.863 99.8138C333.733 99.8678 333.589 99.8819 333.451 99.8544C333.312 99.8269 333.185 99.759 333.085 99.6592C332.986 99.5594 332.918 99.4323 332.89 99.294C332.862 99.1556 332.877 99.0122 332.931 98.8818C332.985 98.7515 333.076 98.6401 333.194 98.5617C333.311 98.4833 333.449 98.4415 333.59 98.4415C333.684 98.4402 333.778 98.4578 333.865 98.4932C333.952 98.5286 334.031 98.5811 334.098 98.6476C334.165 98.714 334.217 98.7932 334.253 98.8803C334.288 98.9674 334.306 99.0608 334.304 99.1548Z" fill="white" stroke="#263238" stroke-miterlimit="10"/>
<path d="M343.072 108.742C343.072 108.819 343.057 108.896 343.027 108.967C342.998 109.039 342.954 109.104 342.899 109.159C342.845 109.213 342.779 109.257 342.708 109.287C342.636 109.316 342.559 109.331 342.482 109.331C342.337 109.313 342.204 109.243 342.107 109.133C342.011 109.024 341.958 108.883 341.958 108.737C341.958 108.591 342.011 108.45 342.107 108.341C342.204 108.231 342.337 108.161 342.482 108.143C342.639 108.145 342.789 108.209 342.9 108.321C343.01 108.434 343.072 108.584 343.072 108.742Z" fill="white" stroke="#263238" stroke-miterlimit="10"/>
<path d="M360.37 117.027C360.37 117.19 360.321 117.35 360.23 117.486C360.139 117.622 360.01 117.729 359.859 117.791C359.707 117.854 359.541 117.87 359.38 117.838C359.22 117.806 359.072 117.727 358.956 117.612C358.84 117.496 358.761 117.349 358.729 117.188C358.697 117.028 358.714 116.861 358.777 116.71C358.839 116.559 358.945 116.43 359.082 116.339C359.218 116.248 359.378 116.199 359.542 116.199C359.651 116.199 359.758 116.221 359.859 116.262C359.959 116.304 360.05 116.365 360.127 116.442C360.204 116.518 360.265 116.61 360.307 116.71C360.349 116.81 360.37 116.918 360.37 117.027Z" fill="white" stroke="#263238" stroke-miterlimit="10"/>
<path d="M368.196 130.4C368.197 130.682 368.115 130.959 367.959 131.195C367.804 131.431 367.581 131.615 367.321 131.724C367.06 131.834 366.772 131.863 366.495 131.809C366.217 131.756 365.962 131.62 365.761 131.421C365.561 131.222 365.424 130.968 365.368 130.691C365.312 130.414 365.34 130.127 365.447 129.865C365.555 129.604 365.738 129.381 365.973 129.224C366.208 129.066 366.485 128.982 366.768 128.982C366.955 128.981 367.14 129.017 367.313 129.088C367.486 129.158 367.644 129.262 367.777 129.394C367.909 129.526 368.015 129.683 368.087 129.855C368.159 130.028 368.196 130.213 368.196 130.4Z" fill="white" stroke="#263238" stroke-miterlimit="10"/>
<path d="M339.988 118.7C339.988 118.958 339.911 119.21 339.767 119.424C339.624 119.639 339.419 119.806 339.18 119.904C338.942 120.003 338.679 120.028 338.426 119.977C338.172 119.926 337.94 119.801 337.758 119.617C337.576 119.434 337.452 119.201 337.403 118.948C337.354 118.694 337.381 118.432 337.481 118.194C337.581 117.956 337.75 117.753 337.966 117.611C338.182 117.469 338.435 117.395 338.693 117.397C338.864 117.397 339.033 117.43 339.191 117.496C339.348 117.561 339.492 117.658 339.612 117.779C339.732 117.9 339.827 118.044 339.892 118.202C339.956 118.36 339.989 118.529 339.988 118.7Z" fill="white" stroke="#263238" stroke-miterlimit="10"/>
<path d="M334.066 130.398C334.066 130.586 334.01 130.77 333.906 130.927C333.801 131.083 333.653 131.205 333.479 131.277C333.305 131.349 333.113 131.368 332.928 131.331C332.744 131.294 332.574 131.204 332.441 131.071C332.308 130.938 332.217 130.768 332.181 130.584C332.144 130.399 332.163 130.208 332.235 130.034C332.307 129.861 332.429 129.712 332.585 129.608C332.742 129.503 332.926 129.447 333.114 129.447C333.367 129.447 333.609 129.547 333.787 129.726C333.966 129.904 334.066 130.146 334.066 130.398Z" fill="white" stroke="#263238" stroke-miterlimit="10"/>
<path d="M328.859 112.642C328.861 112.878 328.792 113.109 328.663 113.305C328.533 113.502 328.348 113.656 328.131 113.747C327.914 113.839 327.674 113.864 327.443 113.819C327.211 113.774 326.998 113.662 326.831 113.496C326.663 113.33 326.549 113.118 326.502 112.887C326.456 112.656 326.479 112.417 326.568 112.199C326.658 111.981 326.811 111.795 327.007 111.664C327.203 111.533 327.433 111.463 327.669 111.463C327.983 111.463 328.284 111.587 328.507 111.808C328.73 112.029 328.856 112.329 328.859 112.642Z" fill="white" stroke="#263238" stroke-miterlimit="10"/>
<path d="M350.184 97.4909C350.185 97.6324 350.145 97.7712 350.068 97.8898C349.991 98.0083 349.88 98.1012 349.749 98.1567C349.619 98.2121 349.475 98.2276 349.336 98.2012C349.197 98.1747 349.069 98.1076 348.968 98.0082C348.867 97.9088 348.798 97.7818 348.77 97.6431C348.742 97.5045 348.755 97.3606 348.809 97.2297C348.863 97.0988 348.954 96.9868 349.072 96.908C349.19 96.8292 349.328 96.7871 349.47 96.7871C349.657 96.7871 349.837 96.8609 349.971 96.9927C350.105 97.1244 350.181 97.3034 350.184 97.4909Z" fill="white" stroke="#263238" stroke-miterlimit="10"/>
<path d="M108.652 127.118C108.269 127.081 107.905 126.937 107.601 126.701C107.298 126.465 107.068 126.148 106.938 125.787C105.799 122.639 103.781 119.883 101.123 117.846C98.4656 115.808 95.2792 114.573 91.9411 114.288C88.6031 114.003 85.2532 114.679 82.2877 116.237C79.3223 117.794 76.8654 120.167 75.2079 123.076C75.0209 123.41 74.7425 123.684 74.4054 123.866C74.0682 124.048 73.6862 124.13 73.3039 124.103L71.1048 123.913C70.7525 123.881 70.3979 123.943 70.077 124.091C69.7561 124.24 69.4803 124.471 69.2774 124.761C69.0745 125.05 68.9518 125.388 68.9216 125.741C68.8915 126.093 68.9549 126.447 69.1056 126.766L73.0374 135.526C73.3515 136.239 73.6657 136.953 73.9322 137.685C75.1402 141.075 77.3636 144.011 80.3003 146.094C83.237 148.177 86.7445 149.306 90.346 149.328C93.9476 149.35 97.4686 148.263 100.43 146.216C103.392 144.168 105.651 141.26 106.9 137.885C107.509 136.22 108.157 134.556 108.909 132.948L110.289 130C110.435 129.707 110.507 129.383 110.498 129.056C110.489 128.728 110.4 128.408 110.238 128.124C110.076 127.839 109.847 127.599 109.57 127.423C109.294 127.248 108.978 127.143 108.652 127.118Z" fill="white" stroke="#263238" stroke-miterlimit="10"/>
<path d="M108.652 127.117C108.269 127.081 107.905 126.936 107.602 126.7C107.298 126.464 107.068 126.147 106.938 125.786C106.495 124.568 105.917 123.404 105.215 122.314L101.864 130.76C96.2533 136.879 90.2798 142.657 83.976 148.061C86.0339 148.873 88.2272 149.29 90.44 149.288H91.1826C96.799 145.73 102.119 141.726 107.091 137.313C107.652 135.83 108.223 134.355 108.899 132.929L110.28 129.98C110.421 129.689 110.49 129.367 110.48 129.043C110.469 128.719 110.38 128.403 110.22 128.121C110.06 127.839 109.833 127.601 109.56 127.426C109.287 127.251 108.975 127.145 108.652 127.117Z" fill="white" stroke="#263238" stroke-miterlimit="10"/>
<path d="M90.4589 139.434C104.849 139.434 116.515 127.779 116.515 113.403C116.515 99.0258 104.849 87.3711 90.4589 87.3711C76.0685 87.3711 64.4027 99.0258 64.4027 113.403C64.4027 127.779 76.0685 139.434 90.4589 139.434Z" fill="white" stroke="#263238" stroke-miterlimit="10"/>
<path d="M90.4591 135.962C102.931 135.962 113.041 125.861 113.041 113.402C113.041 100.942 102.931 90.8418 90.4591 90.8418C77.9877 90.8418 67.8777 100.942 67.8777 113.402C67.8777 125.861 77.9877 135.962 90.4591 135.962Z" fill="white" stroke="#263238" stroke-miterlimit="10"/>
<path d="M90.4591 130.921C100.144 130.921 107.995 123.078 107.995 113.402C107.995 103.726 100.144 95.8828 90.4591 95.8828C80.7743 95.8828 72.9233 103.726 72.9233 113.402C72.9233 123.078 80.7743 130.921 90.4591 130.921Z" fill="white" stroke="#263238" stroke-miterlimit="10"/>
<path d="M79.3207 101.19L57.8912 90.3477L56.168 95.6453L76.4456 106.202C76.9336 106.536 77.5108 106.715 78.1021 106.716C78.7896 106.767 79.4723 106.568 80.0243 106.155C80.5762 105.742 80.9601 105.144 81.1051 104.471C81.2501 103.797 81.1464 103.094 80.8132 102.491C80.48 101.888 79.9397 101.426 79.2921 101.19H79.3207Z" fill="white" stroke="#263238" stroke-miterlimit="10"/>
<path d="M59.0907 92.7537C59.0907 93.318 58.9232 93.8697 58.6093 94.3389C58.2955 94.8081 57.8495 95.1738 57.3276 95.3898C56.8057 95.6057 56.2315 95.6622 55.6775 95.5521C55.1235 95.442 54.6146 95.1703 54.2152 94.7713C53.8157 94.3722 53.5437 93.8638 53.4335 93.3103C53.3233 92.7568 53.3799 92.1831 53.5961 91.6618C53.8122 91.1404 54.1783 90.6948 54.648 90.3813C55.1176 90.0677 55.6698 89.9004 56.2347 89.9004C56.9921 89.9004 57.7186 90.201 58.2542 90.7361C58.7898 91.2712 59.0907 91.9969 59.0907 92.7537Z" fill="white" stroke="#263238" stroke-miterlimit="10"/>
<path d="M196.102 97.6152H253.232" stroke="#263238" stroke-miterlimit="10"/>
<path d="M269.34 97.6152H293.264" stroke="#263238" stroke-miterlimit="10"/>
<path d="M196.102 107.363H253.232" stroke="#263238" stroke-miterlimit="10"/>
<path d="M269.34 107.363H293.264" stroke="#263238" stroke-miterlimit="10"/>
<path d="M196.102 117.121H253.232" stroke="#263238" stroke-miterlimit="10"/>
<path d="M269.34 117.121H293.264" stroke="#263238" stroke-miterlimit="10"/>
<path d="M196.102 126.879H253.232" stroke="#263238" stroke-miterlimit="10"/>
<path d="M269.34 126.879H293.264" stroke="#263238" stroke-miterlimit="10"/>
<path d="M196.102 136.639H253.232" stroke="#263238" stroke-miterlimit="10"/>
<path d="M269.34 136.639H293.264" stroke="#263238" stroke-miterlimit="10"/>
<path d="M196.102 156.631H253.232" stroke="#263238" stroke-miterlimit="10"/>
<path d="M269.34 156.631H293.264" stroke="#263238" stroke-miterlimit="10"/>
<path d="M196.102 166.389H253.232" stroke="#263238" stroke-miterlimit="10"/>
<path d="M269.34 166.389H293.264" stroke="#263238" stroke-miterlimit="10"/>
<path d="M196.102 176.146H253.232" stroke="#263238" stroke-miterlimit="10"/>
<path d="M269.34 176.146H293.264" stroke="#263238" stroke-miterlimit="10"/>
<path d="M196.102 185.904H253.232" stroke="#263238" stroke-miterlimit="10"/>
<path d="M269.34 185.904H293.264" stroke="#263238" stroke-miterlimit="10"/>
<path d="M196.102 195.654H253.232" stroke="#263238" stroke-miterlimit="10"/>
<path d="M269.34 195.654H293.264" stroke="#263238" stroke-miterlimit="10"/>
<path d="M326.955 156.631H384.084" stroke="#263238" stroke-miterlimit="10"/>
<path d="M400.192 156.631H424.116" stroke="#263238" stroke-miterlimit="10"/>
<path d="M326.955 166.389H384.084" stroke="#263238" stroke-miterlimit="10"/>
<path d="M400.192 166.389H424.116" stroke="#263238" stroke-miterlimit="10"/>
<path d="M326.955 176.146H384.084" stroke="#263238" stroke-miterlimit="10"/>
<path d="M400.192 176.146H424.116" stroke="#263238" stroke-miterlimit="10"/>
<path d="M326.955 185.904H384.084" stroke="#263238" stroke-miterlimit="10"/>
<path d="M400.192 185.904H424.116" stroke="#263238" stroke-miterlimit="10"/>
<path d="M326.955 195.654H384.084" stroke="#263238" stroke-miterlimit="10"/>
<path d="M400.192 195.654H424.116" stroke="#263238" stroke-miterlimit="10"/>
<path d="M59.8806 157.609H117.001" stroke="#263238" stroke-miterlimit="10"/>
<path d="M133.118 157.609H157.042" stroke="#263238" stroke-miterlimit="10"/>
<path d="M59.8806 167.367H117.001" stroke="#263238" stroke-miterlimit="10"/>
<path d="M133.118 167.367H157.042" stroke="#263238" stroke-miterlimit="10"/>
<path d="M59.8806 177.127H117.001" stroke="#263238" stroke-miterlimit="10"/>
<path d="M133.118 177.127H157.042" stroke="#263238" stroke-miterlimit="10"/>
<path d="M59.8806 186.875H117.001" stroke="#263238" stroke-miterlimit="10"/>
<path d="M133.118 186.875H157.042" stroke="#263238" stroke-miterlimit="10"/>
<path d="M59.8806 196.633H117.001" stroke="#263238" stroke-miterlimit="10"/>
<path d="M133.118 196.633H157.042" stroke="#263238" stroke-miterlimit="10"/>
<path d="M95.5809 249.001C95.5809 249.001 95.5809 245.339 90.4591 240.222C85.3373 235.105 82.0339 232.176 82.0339 232.176C82.0339 232.176 79.473 240.593 84.233 245.71C87.7342 249.31 91.53 252.613 95.5809 255.582V249.001Z" fill="#FF4136"/>
<path d="M88.1457 271.827C88.1457 271.827 88.1457 268.175 83.0144 263.058C77.8831 257.941 74.5987 255.012 74.5987 255.012C74.5987 255.012 72.0378 263.419 76.7978 268.536C80.2963 272.14 84.0923 275.442 88.1457 278.409V271.827Z" fill="#FF4136"/>
<path d="M95.2572 255.212C95.2572 255.212 95.638 251.578 101.274 247.032C106.91 242.486 110.499 239.918 110.499 239.918C110.499 239.918 112.155 248.554 106.881 253.138C103.024 256.354 98.9036 259.24 94.5622 261.765L95.2572 255.212Z" fill="#FF4136"/>
<path d="M86.2704 282.184C86.2704 282.184 87.0415 278.608 93.1248 274.671C99.208 270.733 103.045 268.574 103.045 268.574C103.045 268.574 103.768 277.324 98.0561 281.338C93.8804 284.129 89.476 286.563 84.89 288.614L86.2704 282.184Z" fill="#FF4136"/>
<path d="M87.9649 311.583C87.9649 311.583 87.9649 307.921 93.0867 302.804C98.2084 297.687 101.502 294.768 101.502 294.768C101.502 294.768 104.063 303.175 99.3032 308.292C95.8066 311.894 92.0139 315.196 87.9649 318.165V311.583Z" fill="#FF4136"/>
<path d="M87.8793 318.755C87.8793 318.755 88.3934 315.141 84.0713 309.349C79.7492 303.556 76.8837 300.189 76.8837 300.189C76.8837 300.189 73.1519 308.15 77.1312 313.885C80.0803 317.958 83.3667 321.776 86.9559 325.298L87.8793 318.755Z" fill="#FF4136"/>
<path d="M82.824 340.02C82.824 340.02 82.824 336.368 87.9457 331.251C93.0675 326.134 96.3614 323.205 96.3614 323.205C96.3614 323.205 98.9223 331.613 94.1718 336.73C90.6733 340.333 86.8773 343.635 82.824 346.602V340.02Z" fill="#FF4136"/>
<path d="M86.2416 359.328C86.2416 359.328 85.2896 355.79 88.9738 349.541C92.658 343.293 95.0761 339.631 95.0761 339.631C95.0761 339.631 99.6933 347.116 96.3899 353.27C93.0864 359.423 86.9841 364.245 86.9841 364.245L86.2416 359.328Z" fill="#FF4136"/>
<path d="M96.0378 248.049C95.7806 251.857 95.3135 255.648 94.6384 259.405C92.6106 269.867 87.546 276.601 85.5277 286.036C83.5095 295.471 89.3357 307.635 87.7554 319.771C86.1751 331.907 81.4722 338.641 82.824 346.735C84.1759 354.828 89.488 380.251 89.488 380.251" stroke="#263238" stroke-linecap="round" stroke-linejoin="round"/>
<path d="M95.2097 257.646L100.722 253.414" stroke="#263238" stroke-linecap="round" stroke-linejoin="round"/>
<path d="M95.457 252.767L93.1532 248.668" stroke="#263238" stroke-linecap="round" stroke-linejoin="round"/>
<path d="M85.8322 285.608C85.8322 285.608 90.4494 282.146 95.2094 278.684" stroke="#263238" stroke-linecap="round" stroke-linejoin="round"/>
<path d="M88.1459 278.398C85.8517 273.951 83.1118 269.748 79.9682 265.854" stroke="#263238" stroke-linecap="round" stroke-linejoin="round"/>
<path d="M88.1457 316.786C90.7899 311.922 94.1283 307.469 98.056 303.565" stroke="#263238" stroke-linecap="round" stroke-linejoin="round"/>
<path d="M87.2412 321.911C85.843 318.606 84.1679 315.424 82.2336 312.4C79.5395 308.425 79.1587 307.911 79.1587 307.911" stroke="#263238" stroke-linecap="round" stroke-linejoin="round"/>
<path d="M82.824 346.745C83.9978 343.839 85.3885 341.026 86.9842 338.328C88.5731 335.835 90.3658 333.478 92.344 331.28" stroke="#263238" stroke-linecap="round" stroke-linejoin="round"/>
<path d="M86.6322 366.518C87.1131 363.428 88.0198 360.419 89.3263 357.578C91.2303 353.849 93.439 349.018 94.3338 347.059" stroke="#263238" stroke-linecap="round" stroke-linejoin="round"/>
<path d="M53.769 297.831C53.769 297.831 53.3691 295.539 56.0252 291.772C58.6813 288.006 60.433 285.818 60.433 285.818C60.433 285.818 62.9558 290.812 60.5282 294.54C58.7253 297.178 56.7031 299.66 54.483 301.958L53.769 297.831Z" fill="#FF4136"/>
<path d="M60.9279 311.344C60.9279 311.344 60.5376 309.052 63.1937 305.286C65.8498 301.519 67.5919 299.322 67.5919 299.322C67.5919 299.322 70.1147 304.325 67.6871 308.044C65.883 310.684 63.8609 313.169 61.6419 315.472L60.9279 311.344Z" fill="#FF4136"/>
<path d="M54.6448 301.701C54.6448 301.701 54.007 299.466 49.98 297.222C45.9531 294.977 43.4303 293.76 43.4303 293.76C43.4303 293.76 43.3256 299.352 47.1336 301.663C49.9031 303.258 52.8009 304.62 55.7968 305.734L54.6448 301.701Z" fill="#FF4136"/>
<path d="M63.2128 317.632C63.2128 317.632 62.337 315.473 58.072 313.675C53.8071 311.878 51.1891 310.917 51.1891 310.917C51.1891 310.917 51.6746 316.49 55.7016 318.383C58.6237 319.679 61.6488 320.728 64.7456 321.522L63.2128 317.632Z" fill="#FF4136"/>
<path d="M65.3452 336.254C65.3452 336.254 64.9454 333.962 61.1754 331.308C57.4055 328.655 55.0255 327.181 55.0255 327.181C55.0255 327.181 54.3306 332.726 57.8815 335.417C60.4661 337.299 63.2048 338.96 66.0687 340.382L65.3452 336.254Z" fill="#FF4136"/>
<path d="M66.1831 340.743C66.1831 340.743 65.4595 338.537 67.5539 334.428C69.6483 330.319 71.0668 327.941 71.0668 327.941C71.0668 327.941 74.2751 332.535 72.3996 336.568C70.9899 339.433 69.3435 342.175 67.4778 344.766L66.1831 340.743Z" fill="#FF4136"/>
<path d="M72.6092 359.242C72.6092 359.242 72.8757 356.931 76.4838 354.059C80.0919 351.187 82.3957 349.589 82.3957 349.589C82.3957 349.589 83.4049 355.086 80.0253 357.978C77.5504 360.001 74.9106 361.815 72.1332 363.399L72.6092 359.242Z" fill="#FF4136"/>
<path d="M71.6572 353.536C71.6572 353.536 71.2574 351.244 67.4874 348.59C63.7175 345.937 61.3375 344.453 61.3375 344.453C61.3375 344.453 60.6426 350.008 64.1935 352.699C66.7807 354.577 69.5191 356.238 72.3807 357.664L71.6572 353.536Z" fill="#FF4136"/>
<path d="M71.6095 365.985C71.6095 365.985 71.7999 363.665 68.8296 360.146C65.8594 356.627 63.9268 354.572 63.9268 354.572C63.9268 354.572 61.8515 359.765 64.5932 363.275C66.6189 365.746 68.848 368.042 71.2572 370.142L71.6095 365.985Z" fill="#FF4136"/>
<path d="M53.3787 297.297C53.9507 299.656 54.6563 301.98 55.4921 304.259C57.8911 310.593 61.8039 314.274 64.0601 319.981C66.3163 325.687 64.0601 333.933 66.3259 341.371C68.5916 348.808 72.352 352.527 72.352 357.749C72.352 362.97 69.9625 378.349 69.9625 378.349" stroke="#263238" stroke-linecap="round" stroke-linejoin="round"/>
<path d="M54.9401 303.223L51.0178 301.159" stroke="#263238" stroke-linecap="round" stroke-linejoin="round"/>
<path d="M54.2545 300.188L55.2541 297.363" stroke="#263238" stroke-linecap="round" stroke-linejoin="round"/>
<path d="M63.86 319.733C63.86 319.733 60.5852 318.069 57.196 316.414" stroke="#263238" stroke-linecap="round" stroke-linejoin="round"/>
<path d="M61.6229 315.473C62.591 312.431 63.867 309.496 65.4309 306.713" stroke="#263238" stroke-linecap="round" stroke-linejoin="round"/>
<path d="M65.7928 339.536C63.6172 336.776 61.0517 334.348 58.1768 332.326" stroke="#263238" stroke-linecap="round" stroke-linejoin="round"/>
<path d="M66.916 342.655C67.4412 340.435 68.148 338.263 69.0294 336.159C70.286 333.372 70.4669 333.011 70.4669 333.011" stroke="#263238" stroke-linecap="round" stroke-linejoin="round"/>
<path d="M72.2091 361.706C73.4844 360.127 74.8956 358.663 76.4265 357.331C77.403 356.613 78.32 355.818 79.1682 354.953" stroke="#263238" stroke-linecap="round" stroke-linejoin="round"/>
<path d="M72.3522 357.75C71.3005 356.056 70.123 354.444 68.8298 352.927C67.5522 351.549 66.164 350.276 64.6791 349.123" stroke="#263238" stroke-linecap="round" stroke-linejoin="round"/>
<path d="M71.2574 370.171C71.1176 368.402 70.5098 366.701 69.4962 365.244C67.8873 363.114 65.9833 360.298 65.2122 359.186" stroke="#263238" stroke-linecap="round" stroke-linejoin="round"/>
<path d="M250.557 135.819C250.557 135.819 276.832 161.185 278.013 173.863C279.193 186.541 259.706 196.87 265.323 200.998C270.939 205.126 286.267 216.044 280.374 225.479C274.481 234.914 271.52 237.282 273.586 239.346C275.652 241.41 280.669 243.151 280.374 248.191C280.079 253.232 274.176 257.56 274.176 257.56H180.88C180.88 257.56 175.863 257.855 176.453 250.778C177.044 243.702 187.078 239.869 185.307 234.553C183.536 229.236 170.541 225.118 170.541 214.494C170.541 203.87 185.897 199.457 188.258 194.445C190.619 189.433 180.585 186.18 178.519 179.693C176.453 173.207 187.087 161.994 193.57 156.097C200.053 150.2 226.053 133.09 236.41 132.5C246.768 131.91 250.557 135.819 250.557 135.819Z" fill="#263238"/>
<mask id="mask2_318_17" style="mask-type:luminance" maskUnits="userSpaceOnUse" x="170" y="132" width="112" height="126">
<path d="M250.557 135.819C250.557 135.819 276.832 161.185 278.013 173.863C279.193 186.541 259.706 196.87 265.323 200.998C270.939 205.126 286.267 216.044 280.374 225.479C274.481 234.914 271.52 237.282 273.586 239.346C275.652 241.41 280.669 243.151 280.374 248.191C280.079 253.232 274.176 257.56 274.176 257.56H180.88C180.88 257.56 175.863 257.855 176.453 250.778C177.044 243.702 187.078 239.869 185.307 234.553C183.536 229.236 170.541 225.118 170.541 214.494C170.541 203.87 185.897 199.457 188.258 194.445C190.619 189.433 180.585 186.18 178.519 179.693C176.453 173.207 187.087 161.994 193.57 156.097C200.053 150.2 226.053 133.09 236.41 132.5C246.768 131.91 250.557 135.819 250.557 135.819Z" fill="white"/>
</mask>
<g mask="url(#mask2_318_17)">
<path d="M257.602 142.686C257.602 142.686 271.882 167.614 269.626 177.401C267.369 187.187 252.252 198.325 258.04 205.886C263.828 213.447 272.32 216.567 268.74 225.916C266.614 231.509 263.438 236.646 259.382 241.048" stroke="#858585" stroke-linecap="round" stroke-linejoin="round"/>
<path d="M193.894 176.963C193.894 176.963 202.805 190.754 200.558 194.758C198.311 198.762 185.412 203.66 187.23 213.894C189.048 224.128 207.727 240.154 207.727 241.942" stroke="#858585" stroke-linecap="round" stroke-linejoin="round"/>
</g>
<path d="M250.557 135.819C250.557 135.819 276.832 161.185 278.013 173.863C279.193 186.541 259.706 196.87 265.323 200.998C270.939 205.126 286.267 216.044 280.374 225.479C274.481 234.914 271.52 237.282 273.586 239.346C275.652 241.41 280.669 243.151 280.374 248.191C280.079 253.232 274.176 257.56 274.176 257.56H180.88C180.88 257.56 175.863 257.855 176.453 250.778C177.044 243.702 187.078 239.869 185.307 234.553C183.536 229.236 170.541 225.118 170.541 214.494C170.541 203.87 185.897 199.457 188.258 194.445C190.619 189.433 180.585 186.18 178.519 179.693C176.453 173.207 187.087 161.994 193.57 156.097C200.053 150.2 226.053 133.09 236.41 132.5C246.768 131.91 250.557 135.819 250.557 135.819Z" stroke="#263238" stroke-linecap="round" stroke-linejoin="round"/>
<path d="M284.286 243.551C284.286 243.551 319.986 299.19 325.222 305.848C330.458 312.505 324.746 323.443 316.654 329.149C308.562 334.856 295.015 329.872 287.989 322.615C280.964 315.359 273.814 298.239 273.814 298.239L284.286 243.551Z" fill="white" stroke="#263238" stroke-linecap="round" stroke-linejoin="round"/>
<path d="M224.31 225.004C224.31 225.004 190.99 234.991 180.518 238.795C170.046 242.6 167.19 243.075 167.19 246.88C167.19 249.096 175.139 292.19 174.33 329.15C173.75 355.856 164.334 380.033 164.334 380.033H285.714C285.714 380.033 275.756 357.35 275.718 330.101C275.661 291.914 285.4 245.225 284.286 243.551C282.382 240.698 228.594 224.529 224.31 225.004Z" fill="white" stroke="#263238" stroke-linecap="round" stroke-linejoin="round"/>
<path d="M276.08 339.079C271.72 335.683 266.056 330.1 263.342 322.491C259.125 310.688 256.021 247.355 255.374 233.088C253.118 232.404 250.852 231.719 248.624 231.062L249.576 290.63H207.212L203.509 231.367C201.253 232.061 198.978 232.774 196.75 233.478C196.797 245.51 196.798 301.634 193.408 317.736C190.809 330.1 179.985 338.441 173.416 342.464C171.824 355.275 168.8 367.867 164.401 380.004H285.781C280.502 366.928 277.232 353.131 276.08 339.079Z" fill="#263238"/>
<mask id="mask3_318_17" style="mask-type:luminance" maskUnits="userSpaceOnUse" x="164" y="231" width="122" height="150">
<path d="M276.08 339.079C271.72 335.683 266.056 330.1 263.342 322.491C259.125 310.688 256.021 247.355 255.374 233.088C253.118 232.404 250.852 231.719 248.624 231.062L249.576 290.63H207.212L203.509 231.367C201.253 232.061 198.978 232.774 196.75 233.478C196.797 245.51 196.798 301.634 193.408 317.736C190.809 330.1 179.985 338.441 173.416 342.464C171.824 355.275 168.8 367.867 164.401 380.004H285.781C280.502 366.928 277.232 353.131 276.08 339.079Z" fill="white"/>
</mask>
<g mask="url(#mask3_318_17)">
<path d="M198.102 233.041L196.712 233.479C196.76 245.51 196.76 301.634 193.37 317.736C193.18 318.63 192.942 319.486 192.676 320.333V380.033H198.102V233.041Z" fill="#424242"/>
<path d="M220.997 290.631H215.571V380.034H220.997V290.631Z" fill="#424242"/>
<path d="M169.78 361.915V379.986H175.168V341.257C174.521 341.685 173.892 342.094 173.312 342.455C172.514 349.005 171.334 355.502 169.78 361.915Z" fill="#424242"/>
<path d="M186.649 331.156C185.003 333.156 183.191 335.014 181.232 336.711V380.033H186.649V331.156Z" fill="#424242"/>
<path d="M204.119 241.838V380.032H209.545V290.629H207.175L204.119 241.838Z" fill="#424242"/>
<path d="M261.353 312.886V380.033H266.77V329.245C265.358 327.141 264.207 324.873 263.343 322.492C262.405 319.353 261.739 316.139 261.353 312.886Z" fill="#424242"/>
<path d="M272.796 336.273V380.024H278.222V354.573C277.208 349.454 276.493 344.281 276.08 339.079C275.042 338.271 273.929 337.329 272.796 336.273Z" fill="#424242"/>
<path d="M255.327 233.079C253.518 232.518 251.699 231.976 249.91 231.443V380.033H255.327V233.079Z" fill="#424242"/>
<path d="M243.884 290.631H238.457V380.034H243.884V290.631Z" fill="#424242"/>
<path d="M232.44 290.631H227.014V380.034H232.44V290.631Z" fill="#424242"/>
</g>
<path d="M276.08 339.079C271.72 335.683 266.056 330.1 263.342 322.491C259.125 310.688 256.021 247.355 255.374 233.088C253.118 232.404 250.852 231.719 248.624 231.062L249.576 290.63H207.212L203.509 231.367C201.253 232.061 198.978 232.774 196.75 233.478C196.797 245.51 196.798 301.634 193.408 317.736C190.809 330.1 179.985 338.441 173.416 342.464C171.824 355.275 168.8 367.867 164.401 380.004H285.781C280.502 366.928 277.232 353.131 276.08 339.079V339.079Z" stroke="#263238" stroke-linecap="round" stroke-linejoin="round"/>
<path d="M220.445 216.302C220.445 216.302 208.069 220.725 205.679 225.737C203.29 230.75 204.499 250.466 202.433 256.41C200.367 262.355 195.35 266.739 198.016 267.072C200.681 267.405 208.64 255.269 212.772 256.743C216.904 258.217 228.128 273.558 229.013 273.558C229.898 273.558 238.466 263.239 240.237 259.996C242.008 256.753 248.5 261.765 251.452 269.136C254.403 276.507 255.26 273.891 255.26 271.2C255.26 268.508 251.718 257.038 252.308 254.974C252.899 252.91 252.013 242.61 252.013 232.262C252.075 228.19 250.681 224.23 248.083 221.093C245.485 217.955 241.853 215.845 237.838 215.142C231.336 213.934 220.445 216.302 220.445 216.302Z" fill="white" stroke="#263238" stroke-linecap="round" stroke-linejoin="round"/>
<path d="M214.828 208.922V242.258C214.828 242.258 225.757 278.238 229.594 275.546C233.43 272.855 242.293 243.694 242.293 243.694V209.217C242.293 209.217 228.708 215.123 214.828 208.922Z" fill="white" stroke="#263238" stroke-linecap="round" stroke-linejoin="round"/>
<path d="M214.828 208.922V215.855C220.35 219.023 226.852 221.162 232.707 221.162C236.042 221.122 239.323 220.311 242.293 218.794V209.217C242.293 209.217 228.708 215.123 214.828 208.922Z" fill="#263238" stroke="#263238" stroke-linecap="round" stroke-linejoin="round"/>
<path d="M203.614 172.646C203.614 172.646 197.121 164.086 193.275 170.278C189.429 176.469 199.482 187.978 202.433 187.683C205.384 187.388 203.614 172.646 203.614 172.646Z" fill="white" stroke="#263238" stroke-linecap="round" stroke-linejoin="round"/>
<path d="M255.831 172.646C255.831 172.646 262.324 164.086 266.17 170.278C270.016 176.469 259.963 187.978 257.011 187.683C254.06 187.388 255.831 172.646 255.831 172.646Z" fill="white" stroke="#263238" stroke-linecap="round" stroke-linejoin="round"/>
<path d="M202.776 160.663C202.776 160.663 199.501 190.147 202.367 198.707C205.232 207.267 220.388 216.711 232.678 216.711C244.969 216.711 255.193 204.851 256.84 197.889C258.487 190.927 254.784 146.339 252.328 141.432C249.871 136.524 234.316 136.115 218.751 143.885C203.185 151.656 202.776 160.663 202.776 160.663Z" fill="white" stroke="#263238" stroke-linecap="round" stroke-linejoin="round"/>
<path d="M233.43 165.303C233.43 165.303 230.774 172.388 233.135 176.516C235.496 180.644 234.02 183.592 231.364 183.592C228.708 183.592 227.556 179.17 227.556 179.17" stroke="#263238" stroke-linecap="round" stroke-linejoin="round"/>
<path d="M218.379 186.504C218.379 186.504 230.755 195.064 241.703 186.504" stroke="#263238" stroke-linecap="round" stroke-linejoin="round"/>
<path d="M236.096 161.138C236.096 161.138 241.418 155.241 247.615 161.728" stroke="#263238" stroke-linecap="round" stroke-linejoin="round"/>
<path d="M223.987 160.549C223.987 160.549 218.674 154.947 212.172 159.959" stroke="#263238" stroke-linecap="round" stroke-linejoin="round"/>
<path d="M241.113 173.521C242.091 173.521 242.884 171.937 242.884 169.983C242.884 168.029 242.091 166.445 241.113 166.445C240.135 166.445 239.342 168.029 239.342 169.983C239.342 171.937 240.135 173.521 241.113 173.521Z" fill="#263238"/>
<path d="M218.97 173.521C219.948 173.521 220.74 171.937 220.74 169.983C220.74 168.029 219.948 166.445 218.97 166.445C217.992 166.445 217.199 168.029 217.199 169.983C217.199 171.937 217.992 173.521 218.97 173.521Z" fill="#263238"/>
<path d="M210.392 175.005C213.424 174.506 216.518 174.506 219.55 175.005" stroke="#263238" stroke-linecap="round" stroke-linejoin="round"/>
<path d="M240.523 175.299C243.449 174.76 246.45 174.76 249.376 175.299" stroke="#263238" stroke-linecap="round" stroke-linejoin="round"/>
<path d="M188.553 177.668C188.553 177.668 234.906 158.494 246.13 149.639C257.354 140.784 260.296 123.684 234.021 124.568C207.745 125.453 179.995 156.135 177.634 170.287C175.273 184.44 184.688 181.472 184.688 181.472" fill="#263238"/>
<mask id="mask4_318_17" style="mask-type:luminance" maskUnits="userSpaceOnUse" x="177" y="124" width="78" height="58">
<path d="M188.553 177.668C188.553 177.668 234.906 158.494 246.13 149.639C257.354 140.784 260.296 123.684 234.021 124.568C207.745 125.453 179.995 156.135 177.634 170.287C175.273 184.44 184.688 181.472 184.688 181.472" fill="white"/>
</mask>
<g mask="url(#mask4_318_17)">
<path d="M251.804 125.357C241.09 138.397 228.114 149.402 213.495 157.847C188.991 172.113 173.397 174.767 173.397 174.767" stroke="#858585" stroke-linecap="round" stroke-linejoin="round"/>
<path d="M234.43 120.877C234.43 120.877 212.601 155.116 172.065 168.498" stroke="#858585" stroke-linecap="round" stroke-linejoin="round"/>
</g>
<path d="M188.553 177.668C188.553 177.668 234.906 158.494 246.13 149.639C257.354 140.784 260.296 123.684 234.021 124.568C207.745 125.453 179.995 156.135 177.634 170.287C175.273 184.44 184.688 181.472 184.688 181.472" stroke="#263238" stroke-linecap="round" stroke-linejoin="round"/>
<path d="M287.142 283.734C287.142 283.734 281.668 281.357 275.242 279.217C268.816 277.077 265.246 281.357 267.864 285.161C270.482 288.965 279.764 289.679 284.286 293.721C288.808 297.763 292.378 310.841 296.9 313.218C299.886 314.709 303.106 315.675 306.42 316.072V283.734H287.142Z" fill="white" stroke="#263238" stroke-linecap="round" stroke-linejoin="round"/>
<path d="M315.141 322.615H287.989L281.916 266.662H321.214L315.141 322.615Z" fill="#FF4136" stroke="#263238" stroke-linecap="round" stroke-linejoin="round"/>
<path d="M322.147 257.893H280.973L277.384 265.425H326.174L322.147 257.893Z" fill="white" stroke="#263238" stroke-linecap="round" stroke-linejoin="round"/>
<path d="M282.506 267.861H321.471L324.87 265.426H278.698L282.506 267.861Z" fill="white" stroke="#263238" stroke-linecap="round" stroke-linejoin="round"/>
<path d="M316.807 307.273L320.291 275.174H282.839L286.324 307.273H316.807Z" fill="white" stroke="#263238" stroke-linecap="round" stroke-linejoin="round"/>
<path d="M325.698 284.924C325.698 284.924 313.084 285.162 310.704 287.539C308.324 289.917 309.038 292.77 313.56 293.246C318.082 293.721 324.746 294.673 328.316 293.721C331.886 292.77 331.886 284.924 325.698 284.924Z" fill="white" stroke="#263238" stroke-linecap="round" stroke-linejoin="round"/>
<path d="M322.804 310.365C322.804 310.365 312.789 310.555 310.904 312.448C309.019 314.341 309.581 316.595 313.17 316.975C316.759 317.356 322.042 318.107 324.879 317.346C327.716 316.585 327.707 310.365 322.804 310.365Z" fill="white" stroke="#263238" stroke-linecap="round" stroke-linejoin="round"/>
<path d="M328.078 294.653C328.078 294.653 311.656 294.653 307.61 295.366C303.564 296.08 302.136 300.122 308.086 301.311C314.036 302.499 326.174 303.213 329.982 302.737C333.79 302.262 334.028 294.434 328.078 294.653Z" fill="white" stroke="#263238" stroke-linecap="round" stroke-linejoin="round"/>
<path d="M327.126 303.212C327.126 303.212 314.036 302.737 309.514 304.401C304.992 306.066 306.658 308.443 310.942 309.394C315.226 310.346 324.746 311.534 328.316 310.346C331.886 309.157 331.886 302.756 327.126 303.212Z" fill="white" stroke="#263238" stroke-linecap="round" stroke-linejoin="round"/>
<path d="M124.712 219.307C124.712 219.307 122.189 220.819 123.96 228.39L125.721 235.951L136.574 233.935C136.574 233.935 131.814 225.375 129.758 221.57C127.701 217.766 125.255 218.299 124.712 219.307Z" fill="white" stroke="#263238" stroke-linecap="round" stroke-linejoin="round"/>
<path d="M116.144 233.184C116.144 233.184 150.721 227.382 161.078 223.854C168.87 221.337 176.789 219.232 184.802 217.548C186.873 217.07 188.989 216.815 191.114 216.787C191.114 216.787 192.123 216.787 191.876 221.077C191.628 225.366 197.426 281.1 202.728 298.249C208.031 315.397 211.296 323.472 211.296 323.472C211.296 323.472 180.252 329.777 151.473 329.777C135.563 329.881 119.678 328.528 104.015 325.735C103.006 325.735 116.391 275.327 115.877 258.15C115.401 240.783 116.144 233.184 116.144 233.184Z" fill="#FF4136" stroke="#263238" stroke-linecap="round" stroke-linejoin="round"/>
<path d="M202.776 298.249C197.473 281.129 191.666 225.366 191.923 221.077C192.18 216.787 191.162 216.787 191.162 216.787C189.977 216.804 188.795 216.89 187.62 217.044C187.487 218.13 187.487 219.229 187.62 220.316C187.62 220.316 187.354 247.812 186.592 280.387C185.964 307.379 186.373 322.901 186.535 327.409C200.901 325.631 211.287 323.519 211.287 323.519C211.287 323.519 208.06 315.397 202.776 298.249Z" fill="#FF4136" stroke="#263238" stroke-linecap="round" stroke-linejoin="round"/>
<path d="M190.638 218.052V230.663C190.638 234.696 191.399 236.712 189.876 236.712C188.353 236.712 175.749 238.986 155.3 243.018C142.304 245.609 129.145 247.293 115.915 248.059C114.402 248.059 116.172 233.184 116.172 233.184C116.172 233.184 154.538 227.125 166.905 223.093C174.263 220.685 181.767 218.747 189.372 217.291" fill="#FF4136"/>
<path d="M190.638 218.052V230.663C190.638 234.696 191.399 236.712 189.876 236.712C188.353 236.712 175.749 238.986 155.3 243.018C142.304 245.609 129.145 247.293 115.915 248.059C114.402 248.059 116.172 233.184 116.172 233.184C116.172 233.184 154.538 227.125 166.905 223.093C174.263 220.685 181.767 218.747 189.372 217.291" stroke="#263238" stroke-linecap="round" stroke-linejoin="round"/>
<path d="M146.465 208.968C146.465 208.968 148.988 203.167 155.804 206.952C162.621 210.737 167.162 224.357 166.152 227.125C165.143 229.893 161.859 230.663 159.079 227.886C156.299 225.109 149.235 215.027 147.474 212.25C145.713 209.473 146.465 208.968 146.465 208.968Z" fill="white" stroke="#263238" stroke-linecap="round" stroke-linejoin="round"/>
<path d="M138.887 212.498C138.887 212.498 151.644 231.082 154.034 232.68C156.423 234.278 160.869 235.191 159.584 229.656C158.375 224.396 153.529 214.267 150.245 210.738C146.96 207.21 144.695 206.706 141.915 208.218C139.135 209.73 138.383 210.481 138.887 212.498Z" fill="white" stroke="#263238" stroke-linecap="round" stroke-linejoin="round"/>
<path d="M139.944 211.49C139.944 211.49 151.806 226.622 152.824 230.16C153.843 233.698 151.806 239.49 146.513 236.209C141.219 232.928 136.412 222.085 133.385 218.3C130.357 214.514 135.603 208.722 139.944 211.49Z" fill="white" stroke="#263238" stroke-linecap="round" stroke-linejoin="round"/>
<path d="M132.833 215.273C132.833 215.273 125.217 216.282 124.265 220.314C123.313 224.347 129.815 233.183 135.117 234.695C140.42 236.207 141.934 231.918 140.42 228.389C138.906 224.86 135.355 216.034 132.833 215.273Z" fill="white" stroke="#263238" stroke-linecap="round" stroke-linejoin="round"/>
<path d="M408.38 362.666H326.012L345.281 273.311H427.648L408.38 362.666Z" fill="#263238" stroke="#263238" stroke-linecap="round" stroke-linejoin="round"/>
<path d="M427.648 273.311H345.281C345.281 273.311 391.919 284.562 427.648 273.311Z" fill="#6B6B6B" stroke="#263238" stroke-linecap="round" stroke-linejoin="round"/>
<path d="M371.68 311.878L362.998 338.556L377.801 348.524L383.589 331.813L371.68 311.878Z" fill="#3B3B3B" stroke="#263238" stroke-linecap="round" stroke-linejoin="round"/>
<path d="M371.68 311.878H400.316L404.819 328.922L383.589 331.813L371.68 311.878Z" fill="#3B3B3B" stroke="#263238" stroke-linecap="round" stroke-linejoin="round"/>
<path d="M397.07 377.769C395.596 358.012 389.547 338.867 379.401 321.845L356.819 377.769H397.07Z" fill="#3B3B3B" stroke="#263238" stroke-linecap="round" stroke-linejoin="round"/>
<path d="M432.598 377.769C433.189 351.662 419.623 321.845 419.623 321.845H379.401C389.547 338.867 395.596 358.012 397.07 377.769H432.598Z" fill="#6B6B6B" stroke="#263238" stroke-linecap="round" stroke-linejoin="round"/>
<path d="M445.831 374.802H40.6409V385.007H445.831V374.802Z" fill="white" stroke="#263238" stroke-linecap="round" stroke-linejoin="round"/>
</svg>
